<svg width="830" height="135" viewBox="0 0 830 135" fill="none" xmlns="http://www.w3.org/2000/svg">
<g clip-path="url(#clip0_377_6689)">
<rect width="830" height="135" rx="14" fill="#301617"/>
<rect width="830" height="135" rx="14" fill="#301617"/>
<rect width="830" height="135" rx="14" fill="url(#paint0_radial_377_6689)" fill-opacity="0.2"/>
<rect width="830" height="135" rx="14" fill="url(#paint1_radial_377_6689)" fill-opacity="0.2"/>
<path fill-rule="evenodd" clip-rule="evenodd" d="M39.0098 30.8346L28 30.835V25.123H39.0098V30.835H44.754V41.8771H39.0098V36.5471C36.093 36.5979 33.7442 38.9647 33.7442 41.8771H28C28 35.8103 32.9205 30.8862 39.0098 30.835V30.8346Z" fill="#FFA0A3"/>
<path d="M67.5659 41.076C66.9686 41.468 66.2219 41.7667 65.3259 41.972C64.4486 42.1587 63.5246 42.252 62.5539 42.252C60.7059 42.252 59.1006 41.8787 57.7379 41.132C56.3752 40.3853 55.3206 39.368 54.5739 38.08C53.8272 36.7733 53.4539 35.308 53.4539 33.684C53.4539 32.0227 53.8272 30.5573 54.5739 29.288C55.3206 28 56.3379 26.9827 57.6259 26.236C58.9326 25.4893 60.4072 25.116 62.0499 25.116C63.2259 25.116 64.2526 25.2373 65.1299 25.48C66.0259 25.704 66.8286 26.0587 67.5379 26.544L66.3339 29.932C65.8299 29.5027 65.2419 29.1667 64.5699 28.924C63.8979 28.6813 63.1512 28.56 62.3299 28.56C61.3592 28.56 60.4912 28.7653 59.7259 29.176C58.9606 29.5867 58.3539 30.1747 57.9059 30.94C57.4766 31.7053 57.2619 32.62 57.2619 33.684C57.2619 34.6733 57.4859 35.56 57.9339 36.344C58.3819 37.1093 59.0166 37.716 59.8379 38.164C60.6592 38.5933 61.6112 38.808 62.6939 38.808C63.6646 38.808 64.5606 38.6867 65.3819 38.444C66.2219 38.2013 66.9032 37.8747 67.4259 37.464L67.5659 41.076ZM76.6285 29.568L76.4885 33.012C76.3765 32.956 76.1805 32.9 75.9005 32.844C75.6392 32.788 75.3872 32.76 75.1445 32.76C74.6405 32.76 74.1458 32.8533 73.6605 33.04C73.1938 33.208 72.7645 33.4413 72.3725 33.74V42H68.7885V29.764L72.3725 29.596V31.052C72.9138 30.492 73.4645 30.0813 74.0245 29.82C74.6032 29.5587 75.2005 29.428 75.8165 29.428C75.9472 29.428 76.0872 29.4373 76.2365 29.456C76.4045 29.4747 76.5352 29.512 76.6285 29.568ZM89.9274 35.84C89.9274 37.072 89.6381 38.1733 89.0594 39.144C88.4994 40.1147 87.7154 40.88 86.7074 41.44C85.6994 41.9813 84.5514 42.252 83.2634 42.252C81.9754 42.252 80.8274 41.9813 79.8194 41.44C78.8114 40.88 78.0181 40.1147 77.4394 39.144C76.8794 38.1733 76.5994 37.072 76.5994 35.84C76.5994 34.5893 76.8794 33.488 77.4394 32.536C78.0181 31.5653 78.8114 30.8093 79.8194 30.268C80.8274 29.708 81.9754 29.428 83.2634 29.428C84.5514 29.428 85.6994 29.708 86.7074 30.268C87.7154 30.8093 88.4994 31.5653 89.0594 32.536C89.6381 33.488 89.9274 34.5893 89.9274 35.84ZM86.2314 35.84C86.2314 35.1867 86.1007 34.6173 85.8394 34.132C85.5781 33.628 85.2234 33.2453 84.7754 32.984C84.3274 32.704 83.8234 32.564 83.2634 32.564C82.7034 32.564 82.1994 32.704 81.7514 32.984C81.3034 33.2453 80.9487 33.628 80.6874 34.132C80.4261 34.6173 80.2954 35.1867 80.2954 35.84C80.2954 36.4933 80.4261 37.072 80.6874 37.576C80.9487 38.0613 81.3034 38.444 81.7514 38.724C82.2181 38.9853 82.7221 39.116 83.2634 39.116C83.8421 39.116 84.3554 38.9853 84.8034 38.724C85.2514 38.444 85.5967 38.0613 85.8394 37.576C86.1007 37.072 86.2314 36.4933 86.2314 35.84ZM110.022 29.68L106.382 42H102.574L101.118 37.66C100.857 36.764 100.642 36.0453 100.474 35.504C100.306 34.944 100.166 34.4307 100.054 33.964H99.9142C99.8209 34.4307 99.6809 34.944 99.4942 35.504C99.3262 36.0453 99.1116 36.764 98.8502 37.66L97.3942 42H93.5862L89.9462 29.764L93.5582 29.596L95.2102 35.476C95.3036 35.868 95.3969 36.3347 95.4902 36.876C95.6022 37.3987 95.6862 37.884 95.7422 38.332H95.8822C95.9382 37.884 96.0316 37.3987 96.1622 36.876C96.2929 36.3347 96.4142 35.868 96.5262 35.476L98.1502 30.604H101.958L103.582 35.476C103.694 35.868 103.816 36.3347 103.946 36.876C104.077 37.3987 104.17 37.884 104.226 38.332H104.366C104.422 37.884 104.497 37.3987 104.59 36.876C104.702 36.3347 104.805 35.868 104.898 35.476L106.494 29.68H110.022ZM123.329 35.84C123.329 37.072 123.04 38.1733 122.461 39.144C121.901 40.1147 121.117 40.88 120.109 41.44C119.101 41.9813 117.953 42.252 116.665 42.252C115.377 42.252 114.229 41.9813 113.221 41.44C112.213 40.88 111.42 40.1147 110.841 39.144C110.281 38.1733 110.001 37.072 110.001 35.84C110.001 34.5893 110.281 33.488 110.841 32.536C111.42 31.5653 112.213 30.8093 113.221 30.268C114.229 29.708 115.377 29.428 116.665 29.428C117.953 29.428 119.101 29.708 120.109 30.268C121.117 30.8093 121.901 31.5653 122.461 32.536C123.04 33.488 123.329 34.5893 123.329 35.84ZM119.633 35.84C119.633 35.1867 119.503 34.6173 119.241 34.132C118.98 33.628 118.625 33.2453 118.177 32.984C117.729 32.704 117.225 32.564 116.665 32.564C116.105 32.564 115.601 32.704 115.153 32.984C114.705 33.2453 114.351 33.628 114.089 34.132C113.828 34.6173 113.697 35.1867 113.697 35.84C113.697 36.4933 113.828 37.072 114.089 37.576C114.351 38.0613 114.705 38.444 115.153 38.724C115.62 38.9853 116.124 39.116 116.665 39.116C117.244 39.116 117.757 38.9853 118.205 38.724C118.653 38.444 118.999 38.0613 119.241 37.576C119.503 37.072 119.633 36.4933 119.633 35.84ZM135.918 29.596V42H132.334V40.964C131.755 41.412 131.167 41.7387 130.57 41.944C129.972 42.1493 129.328 42.252 128.638 42.252C127.368 42.252 126.342 41.8973 125.558 41.188C124.774 40.46 124.382 39.3307 124.382 37.8V29.764L127.966 29.596V37.044C127.966 37.772 128.143 38.2947 128.498 38.612C128.852 38.9293 129.338 39.088 129.954 39.088C130.364 39.088 130.775 39.0227 131.186 38.892C131.596 38.7427 131.979 38.556 132.334 38.332V29.764L135.918 29.596ZM146.245 30.044L145.713 32.956C145.321 32.7693 144.836 32.62 144.257 32.508C143.697 32.3773 143.128 32.312 142.549 32.312C142.026 32.312 141.634 32.396 141.373 32.564C141.13 32.732 141.009 32.956 141.009 33.236C141.009 33.46 141.149 33.656 141.429 33.824C141.709 33.9733 142.064 34.1133 142.493 34.244C142.941 34.3747 143.408 34.5333 143.893 34.72C144.397 34.9067 144.864 35.14 145.293 35.42C145.741 35.7 146.096 36.0733 146.357 36.54C146.637 36.988 146.777 37.5573 146.777 38.248C146.777 38.9573 146.6 39.62 146.245 40.236C145.909 40.8333 145.349 41.3187 144.565 41.692C143.8 42.0653 142.801 42.252 141.569 42.252C140.729 42.252 139.908 42.1587 139.105 41.972C138.321 41.7853 137.686 41.5427 137.201 41.244L137.425 38.22C137.892 38.5187 138.498 38.7893 139.245 39.032C140.01 39.256 140.766 39.368 141.513 39.368C142.577 39.368 143.109 39.0507 143.109 38.416C143.109 38.1733 142.969 37.9773 142.689 37.828C142.409 37.6787 142.054 37.5387 141.625 37.408C141.196 37.2587 140.729 37.0907 140.225 36.904C139.721 36.7173 139.254 36.484 138.825 36.204C138.396 35.9053 138.041 35.532 137.761 35.084C137.481 34.636 137.341 34.0667 137.341 33.376C137.341 32.6293 137.546 31.9667 137.957 31.388C138.386 30.7907 138.993 30.3147 139.777 29.96C140.561 29.6053 141.494 29.428 142.577 29.428C143.305 29.428 143.996 29.484 144.649 29.596C145.302 29.6893 145.834 29.8387 146.245 30.044Z" fill="#FFA0A3"/>
<path d="M48.4377 78H43.5945L41.8427 73.0194H34.6637L32.9119 78H28.2748L35.7286 57.5966H41.0183L48.4377 78ZM40.6748 69.4127L39.0261 64.7412C38.7169 63.8482 38.5108 63.0925 38.3391 62.2681H38.1673C37.9956 63.0925 37.7895 63.8482 37.4804 64.7412L35.7972 69.4127H40.6748ZM79.9954 62.8864L75.53 78H70.8586L69.0724 72.6759C68.3854 70.4775 68.0076 69.2753 67.7671 68.1418H67.5954C67.355 69.2753 66.9771 70.4775 66.2901 72.6759L64.504 78H59.8325L55.4015 62.9894L59.7982 62.7833L61.8248 69.9967C62.0652 70.9584 62.34 72.4011 62.4774 73.5003H62.6491C62.7865 72.4011 63.13 70.9584 63.4392 69.9967L65.4314 63.9856H70.1029L72.0951 69.9967C72.3699 70.9584 72.7478 72.4011 72.8852 73.5003H73.0569C73.1943 72.4011 73.4691 70.9584 73.7095 69.9967L75.6674 62.8864H79.9954ZM91.3355 62.749L91.1637 66.9739C90.8546 66.8022 90.1333 66.6648 89.515 66.6648C88.2784 66.6648 87.0418 67.1113 86.1144 67.867V78H81.7521V62.9894L86.1144 62.7833V64.5695C87.454 63.1955 88.828 62.5772 90.3393 62.5772C90.6485 62.5772 91.095 62.6459 91.3355 62.749ZM105.998 78H101.842V76.8321C100.743 77.6909 99.1282 78.3091 97.3077 78.3091C93.9414 78.3091 92.1209 76.5917 92.1209 73.7751C92.1209 70.718 94.4567 69.1036 98.0977 69.1036C99.4373 69.1036 100.914 69.3784 101.704 69.7219V68.8975C101.704 67.1113 100.64 66.4243 98.2351 66.4243C96.552 66.4243 94.6284 66.9052 93.5293 67.5235L93.3575 63.6764C94.8002 62.9894 96.8268 62.5772 98.8877 62.5772C103.49 62.5772 105.998 64.4321 105.998 68.6227V78ZM101.704 74.4964V72.3324C101.052 72.0233 100.021 71.8172 99.1625 71.8172C97.4107 71.8172 96.4833 72.3667 96.4833 73.7064C96.4833 74.9086 97.2733 75.3895 98.7847 75.3895C99.8495 75.3895 101.052 75.0116 101.704 74.4964ZM123.986 70.2714C123.986 74.9086 120.826 78.3091 116.395 78.3091C115.089 78.3091 114.093 78.103 113.269 77.6909V84.3546H108.907V62.9894L113.269 62.7833V63.8825C114.299 63.0581 115.605 62.5772 117.219 62.5772C120.998 62.5772 123.986 65.4969 123.986 70.2714ZM119.452 70.4088C119.452 67.9357 118.181 66.3556 115.811 66.3556C114.883 66.3556 113.922 66.6304 113.269 67.1457V74.1185C113.819 74.3246 114.712 74.5307 115.57 74.5307C117.94 74.5307 119.452 72.9507 119.452 70.4088ZM141.085 70.2714C141.085 74.9086 137.925 78.3091 133.494 78.3091C132.189 78.3091 131.193 78.103 130.368 77.6909V84.3546H126.006V62.9894L130.368 62.7833V63.8825C131.399 63.0581 132.704 62.5772 134.319 62.5772C138.097 62.5772 141.085 65.4969 141.085 70.2714ZM136.551 70.4088C136.551 67.9357 135.28 66.3556 132.91 66.3556C131.983 66.3556 131.021 66.6304 130.368 67.1457V74.1185C130.918 74.3246 131.811 74.5307 132.67 74.5307C135.04 74.5307 136.551 72.9507 136.551 70.4088ZM156.467 71.508H146.781C147.193 73.3972 148.876 74.462 151.658 74.462C153.204 74.462 155.196 74.0155 156.364 73.2942L156.536 77.0382C155.334 77.8283 153.067 78.3091 151.349 78.3091C145.441 78.3091 142.178 75.2177 142.178 70.3745C142.178 65.6687 145.441 62.5772 149.769 62.5772C153.754 62.5772 156.639 65.0504 156.639 69.241C156.639 69.8249 156.57 70.7867 156.467 71.508ZM149.804 65.7374C148.017 65.7374 146.85 66.9739 146.609 69.0005H152.551V68.554C152.551 66.8709 151.487 65.7374 149.804 65.7374ZM168.48 62.749L168.308 66.9739C167.999 66.8022 167.278 66.6648 166.66 66.6648C165.423 66.6648 164.186 67.1113 163.259 67.867V78H158.897V62.9894L163.259 62.7833V64.5695C164.599 63.1955 165.973 62.5772 167.484 62.5772C167.793 62.5772 168.24 62.6459 168.48 62.749ZM186 56.4631L185.829 60.2415C185.485 60.1041 184.901 60.0354 184.455 60.0354C182.806 60.0354 181.913 60.7567 181.913 62.4399V62.8864H185.657L185.348 66.6304H181.913V78H177.516V66.6304H175.455V62.8864H177.516V62.3712C177.516 58.318 180.058 56.2227 183.974 56.2227C184.592 56.2227 185.485 56.2914 186 56.4631ZM202.774 70.4432C202.774 75.0116 199.339 78.3091 194.599 78.3091C189.893 78.3091 186.424 75.0116 186.424 70.4432C186.424 65.8748 189.893 62.5772 194.599 62.5772C199.339 62.5772 202.774 65.8748 202.774 70.4432ZM198.24 70.4432C198.24 68.0044 196.66 66.4243 194.599 66.4243C192.538 66.4243 190.958 68.0044 190.958 70.4432C190.958 72.882 192.538 74.462 194.599 74.462C196.694 74.462 198.24 72.882 198.24 70.4432ZM214.37 62.749L214.198 66.9739C213.889 66.8022 213.167 66.6648 212.549 66.6648C211.313 66.6648 210.076 67.1113 209.149 67.867V78H204.786V62.9894L209.149 62.7833V64.5695C210.488 63.1955 211.862 62.5772 213.374 62.5772C213.683 62.5772 214.129 62.6459 214.37 62.749ZM232.062 62.8864L231.752 66.6304H227.734V72.4011C227.734 73.9125 228.489 74.462 229.898 74.462C230.688 74.462 231.409 74.1872 231.924 73.8094L232.096 77.5191C231.34 78 230.207 78.3091 228.833 78.3091C225.02 78.3091 223.371 76.3512 223.371 72.882V66.6304H221.31V62.8864H223.371V59.7263L227.734 58.7988V62.8864H232.062ZM248.505 78H244.142V68.9662C244.142 67.18 243.112 66.4587 241.566 66.4587C240.57 66.4587 239.437 66.8365 238.509 67.4205V78H234.147V56.3944L238.509 56.2227V64.1917C239.952 63.0925 241.566 62.5772 243.284 62.5772C246.409 62.5772 248.505 64.2604 248.505 68.0388V78ZM264.809 71.508H255.123C255.535 73.3972 257.218 74.462 260 74.462C261.546 74.462 263.538 74.0155 264.706 73.2942L264.878 77.0382C263.676 77.8283 261.409 78.3091 259.691 78.3091C253.783 78.3091 250.52 75.2177 250.52 70.3745C250.52 65.6687 253.783 62.5772 258.111 62.5772C262.096 62.5772 264.981 65.0504 264.981 69.241C264.981 69.8249 264.912 70.7867 264.809 71.508ZM258.145 65.7374C256.359 65.7374 255.191 66.9739 254.951 69.0005H260.893V68.554C260.893 66.8709 259.829 65.7374 258.145 65.7374ZM128.868 84.9479C130.242 84.9479 131.204 85.944 131.204 87.2836C131.204 88.6232 130.242 89.6537 128.868 89.6537C127.46 89.6537 126.429 88.6232 126.429 87.2836C126.429 85.944 127.46 84.9479 128.868 84.9479ZM130.998 91.7833V107H126.635V91.9894L130.998 91.7833ZM148.195 107H143.832V97.9662C143.832 96.18 142.905 95.4587 141.359 95.4587C140.363 95.4587 139.23 95.8365 138.302 96.4205V107H133.94V91.9894L138.302 91.7833V93.1917C139.745 92.0925 141.256 91.5772 142.974 91.5772C146.099 91.5772 148.195 93.2604 148.195 97.0388V107ZM160.586 91.8864L160.277 95.6304H156.258V101.401C156.258 102.912 157.014 103.462 158.422 103.462C159.212 103.462 159.933 103.187 160.449 102.809L160.62 106.519C159.865 107 158.731 107.309 157.357 107.309C153.544 107.309 151.896 105.351 151.896 101.882V95.6304H149.835V91.8864H151.896V88.7263L156.258 87.7988V91.8864H160.586ZM176.033 100.508H166.346C166.759 102.397 168.442 103.462 171.224 103.462C172.77 103.462 174.762 103.016 175.93 102.294L176.102 106.038C174.899 106.828 172.632 107.309 170.915 107.309C165.007 107.309 161.744 104.218 161.744 99.3745C161.744 94.6687 165.007 91.5772 169.335 91.5772C173.319 91.5772 176.205 94.0504 176.205 98.241C176.205 98.8249 176.136 99.7867 176.033 100.508ZM169.369 94.7374C167.583 94.7374 166.415 95.9739 166.175 98.0005H172.117V97.554C172.117 95.8709 171.052 94.7374 169.369 94.7374ZM188.046 91.749L187.874 95.9739C187.565 95.8022 186.843 95.6648 186.225 95.6648C184.989 95.6648 183.752 96.1113 182.825 96.867V107H178.462V91.9894L182.825 91.7833V93.5695C184.164 92.1955 185.538 91.5772 187.05 91.5772C187.359 91.5772 187.805 91.6459 188.046 91.749ZM204.013 107H199.651V97.9662C199.651 96.18 198.724 95.4587 197.178 95.4587C196.182 95.4587 195.048 95.8365 194.121 96.4205V107H189.759V91.9894L194.121 91.7833V93.1917C195.564 92.0925 197.075 91.5772 198.792 91.5772C201.918 91.5772 204.013 93.2604 204.013 97.0388V107ZM219.908 107H215.752V105.832C214.653 106.691 213.038 107.309 211.218 107.309C207.852 107.309 206.031 105.592 206.031 102.775C206.031 99.718 208.367 98.1036 212.008 98.1036C213.348 98.1036 214.825 98.3784 215.615 98.7219V97.8975C215.615 96.1113 214.55 95.4243 212.145 95.4243C210.462 95.4243 208.539 95.9052 207.44 96.5235L207.268 92.6764C208.71 91.9894 210.737 91.5772 212.798 91.5772C217.401 91.5772 219.908 93.4321 219.908 97.6227V107ZM215.615 103.496V101.332C214.962 101.023 213.931 100.817 213.073 100.817C211.321 100.817 210.394 101.367 210.394 102.706C210.394 103.909 211.184 104.389 212.695 104.389C213.76 104.389 214.962 104.012 215.615 103.496ZM227.179 85.2227V107H222.817V85.3944L227.179 85.2227ZM255.443 107H250.6L248.848 102.019H241.669L239.918 107H235.281L242.734 86.5966H248.024L255.443 107ZM247.681 98.4127L246.032 93.7412C245.723 92.8482 245.517 92.0925 245.345 91.2681H245.173C245.001 92.0925 244.795 92.8482 244.486 93.7412L242.803 98.4127H247.681ZM272.843 93.6038C272.843 98.1379 269.648 100.611 264.255 100.611H261.851V107H257.282V86.5966H264.29C269.683 86.5966 272.843 89.0698 272.843 93.6038ZM268.274 93.6038C268.274 91.3368 266.728 90.3407 264.187 90.3407H261.851V96.867H264.187C266.728 96.867 268.274 95.8709 268.274 93.6038ZM279.89 86.5966V107H275.321V86.5966H279.89Z" fill="white"/>
<path d="M290.328 76.8665C288.817 77.8283 286.55 78.3091 284.179 78.3091C277.31 78.3091 272.982 73.8438 272.982 67.7983C272.982 61.7529 277.447 57.2875 283.561 57.2875C286.412 57.2875 288.542 57.8714 290.259 59.0393L288.782 63.1612C287.546 62.1307 285.863 61.5124 283.87 61.5124C280.264 61.5124 277.653 63.8825 277.653 67.7983C277.653 71.4737 280.332 74.0842 284.317 74.0842C286.721 74.0842 288.817 73.4316 290.122 72.4354L290.328 76.8665ZM302.098 62.749L301.926 66.9739C301.617 66.8022 300.896 66.6648 300.278 66.6648C299.041 66.6648 297.805 67.1113 296.877 67.867V78H292.515V62.9894L296.877 62.7833V64.5695C298.217 63.1955 299.591 62.5772 301.102 62.5772C301.411 62.5772 301.858 62.6459 302.098 62.749ZM319.1 70.4432C319.1 75.0116 315.665 78.3091 310.925 78.3091C306.219 78.3091 302.749 75.0116 302.749 70.4432C302.749 65.8748 306.219 62.5772 310.925 62.5772C315.665 62.5772 319.1 65.8748 319.1 70.4432ZM314.566 70.4432C314.566 68.0044 312.985 66.4243 310.925 66.4243C308.864 66.4243 307.284 68.0044 307.284 70.4432C307.284 72.882 308.864 74.462 310.925 74.462C313.02 74.462 314.566 72.882 314.566 70.4432ZM335.229 62.7833V78H330.867V76.7291C329.424 77.8283 327.982 78.3091 326.298 78.3091C323.173 78.3091 321.112 76.626 321.112 72.8476V62.9894L325.474 62.7833V71.9202C325.474 73.7064 326.401 74.4277 327.913 74.4277C328.909 74.4277 329.939 74.0499 330.867 73.5003V62.9894L335.229 62.7833ZM348.585 63.3329L347.933 66.9052C346.971 66.4243 345.46 66.1152 344.051 66.1152C342.78 66.1152 342.162 66.5274 342.162 67.2487C342.162 68.9662 349.238 68.3479 349.238 73.3972C349.238 76.0421 347.383 78.3091 342.849 78.3091C340.788 78.3091 338.658 77.8283 337.525 77.0726L337.765 73.3629C338.899 74.1185 340.926 74.7712 342.78 74.7712C344.154 74.7712 344.738 74.359 344.738 73.6033C344.738 71.8515 337.662 72.4698 337.662 67.3861C337.662 64.7069 340.067 62.5772 344.086 62.5772C345.872 62.5772 347.555 62.852 348.585 63.3329ZM51.9413 86.5966V107H47.3729V94.4969H47.2355C47.0294 95.39 46.7203 96.2831 46.2394 97.3822L42.9762 104.08H38.6826L35.4538 97.3822C35.0072 96.3518 34.6637 95.39 34.4576 94.4969H34.2859V107H29.9236V86.5966H34.7668L39.6444 96.8327C40.0909 97.8288 40.6061 99.0997 40.8466 99.8897H41.0183C41.2588 99.0997 41.774 97.8288 42.2205 96.8327L47.0981 86.5966H51.9413ZM70.5905 99.4432C70.5905 104.012 67.1556 107.309 62.4154 107.309C57.7096 107.309 54.2403 104.012 54.2403 99.4432C54.2403 94.8748 57.7096 91.5772 62.4154 91.5772C67.1556 91.5772 70.5905 94.8748 70.5905 99.4432ZM66.0564 99.4432C66.0564 97.0044 64.4763 95.4243 62.4154 95.4243C60.3545 95.4243 58.7744 97.0044 58.7744 99.4432C58.7744 101.882 60.3545 103.462 62.4154 103.462C64.5107 103.462 66.0564 101.882 66.0564 99.4432ZM87.6819 99.2028C87.6819 104.012 84.4187 107.309 79.0946 107.309C76.6558 107.309 74.2857 106.725 72.6026 105.901V85.3944L76.9649 85.2227V92.8138C78.2015 91.9551 79.4037 91.5772 80.9151 91.5772C84.7622 91.5772 87.6819 94.4969 87.6819 99.2028ZM83.1478 99.4088C83.1478 96.9357 81.8769 95.3556 79.5068 95.3556C78.5793 95.3556 77.6176 95.6304 76.9649 96.1457V103.119C77.5145 103.325 78.4076 103.531 79.2663 103.531C81.6364 103.531 83.1478 101.951 83.1478 99.4088ZM91.9347 84.9479C93.3087 84.9479 94.2704 85.944 94.2704 87.2836C94.2704 88.6232 93.3087 89.6537 91.9347 89.6537C90.5264 89.6537 89.4959 88.6232 89.4959 87.2836C89.4959 85.944 90.5264 84.9479 91.9347 84.9479ZM94.0643 91.7833V107H89.702V91.9894L94.0643 91.7833ZM101.369 85.2227V107H97.0066V85.3944L101.369 85.2227ZM117.673 100.508H107.986C108.399 102.397 110.082 103.462 112.864 103.462C114.41 103.462 116.402 103.016 117.57 102.294L117.742 106.038C116.539 106.828 114.272 107.309 112.555 107.309C106.647 107.309 103.384 104.218 103.384 99.3745C103.384 94.6687 106.647 91.5772 110.975 91.5772C114.959 91.5772 117.845 94.0504 117.845 98.241C117.845 98.8249 117.776 99.7867 117.673 100.508ZM111.009 94.7374C109.223 94.7374 108.055 95.9739 107.815 98.0005H113.757V97.554C113.757 95.8709 112.692 94.7374 111.009 94.7374Z" fill="#FFA0A3"/>
<g style="mix-blend-mode:overlay">
<path fill-rule="evenodd" clip-rule="evenodd" d="M477.798 -3.92365L379 -3.92364V-55L477.798 -55L477.798 -3.92365L529.11 -3.92364V94.7405L477.798 95.3454L477.798 47.5157C451.624 47.9714 430.547 69.211 430.547 95.3454H379C379 40.9038 423.155 -3.46485 477.798 -3.92365Z" fill="#FFA0A3"/>
<path fill-rule="evenodd" clip-rule="evenodd" d="M580.892 94.9327L679.69 94.9291V146.187H580.892V94.9291L529.11 94.7405V-3.92369L580.892 -3.92369V43.6711C607.066 43.2153 628.127 22.2107 628.127 -3.92369H679.221C679.221 50.5179 635.536 94.4703 580.892 94.9291V94.9327Z" fill="#FFA0A3" fill-opacity="0.5"/>
<path fill-rule="evenodd" clip-rule="evenodd" d="M778.489 47.0954L679.221 47.0954V-3.92383L778.489 -3.92383V47.099L830.036 47.099V146.187H778.489V98.357C752.315 98.8127 731.238 120.052 731.238 146.187H679.691C679.691 91.7451 723.845 47.5578 778.489 47.099V47.0954Z" fill="#FFA0A3" fill-opacity="0.7"/>
</g>
</g>
<rect x="0.5" y="0.5" width="829" height="134" rx="13.5" stroke="url(#paint2_linear_377_6689)" style="mix-blend-mode:overlay"/>
<rect x="0.5" y="0.5" width="829" height="134" rx="13.5" stroke="url(#paint3_linear_377_6689)" stroke-opacity="0.1"/>
<rect x="0.5" y="0.5" width="829" height="134" rx="13.5" stroke="white" stroke-opacity="0.1"/>
<defs>
<radialGradient id="paint0_radial_377_6689" cx="0" cy="0" r="1" gradientUnits="userSpaceOnUse" gradientTransform="translate(9.4458e-07 165.586) rotate(17.7974) scale(413.385 308.037)">
<stop offset="0.100613" stop-color="#FFA0A3" stop-opacity="0"/>
<stop offset="0.515" stop-color="#A9191D"/>
<stop offset="1" stop-color="#FF0009" stop-opacity="0.35"/>
</radialGradient>
<radialGradient id="paint1_radial_377_6689" cx="0" cy="0" r="1" gradientUnits="userSpaceOnUse" gradientTransform="translate(1136.06 -141.75) rotate(105.756) scale(434.619 1675.73)">
<stop stop-color="#FFA0A3" stop-opacity="0"/>
<stop offset="0.5" stop-color="#FFA0A3"/>
<stop offset="1" stop-color="#FFA0A3" stop-opacity="0.184314"/>
</radialGradient>
<linearGradient id="paint2_linear_377_6689" x1="415" y1="0" x2="415" y2="135" gradientUnits="userSpaceOnUse">
<stop stop-color="white" stop-opacity="0.6"/>
<stop offset="0.5" stop-color="white" stop-opacity="0"/>
<stop offset="1" stop-color="white"/>
</linearGradient>
<linearGradient id="paint3_linear_377_6689" x1="415" y1="0" x2="415" y2="135" gradientUnits="userSpaceOnUse">
<stop stop-color="white" stop-opacity="0.6"/>
<stop offset="0.5" stop-color="white" stop-opacity="0"/>
<stop offset="1" stop-color="white"/>
</linearGradient>
<clipPath id="clip0_377_6689">
<rect width="830" height="135" rx="14" fill="white"/>
</clipPath>
</defs>
</svg>
