<svg width="830" height="135" viewBox="0 0 830 135" fill="none" xmlns="http://www.w3.org/2000/svg">
<g clip-path="url(#clip0_377_6689)">
<rect width="830" height="135" rx="14" fill="#301617"/>
<rect width="830" height="135" rx="14" fill="#301617"/>
<rect width="830" height="135" rx="14" fill="url(#paint0_radial_377_6689)" fill-opacity="0.2"/>
<rect width="830" height="135" rx="14" fill="url(#paint1_radial_377_6689)" fill-opacity="0.2"/>
<path fill-rule="evenodd" clip-rule="evenodd" d="M39.0098 30.8346L28 30.835V25.123H39.0098V30.835H44.754V41.8771H39.0098V36.5471C36.093 36.5979 33.7442 38.9647 33.7442 41.8771H28C28 35.8103 32.9205 30.8862 39.0098 30.835V30.8346Z" fill="#FFA0A3"/>
<path d="M67.5659 41.076C66.9686 41.468 66.2219 41.7667 65.3259 41.972C64.4486 42.1587 63.5246 42.252 62.5539 42.252C60.7059 42.252 59.1006 41.8787 57.7379 41.132C56.3752 40.3853 55.3206 39.368 54.5739 38.08C53.8272 36.7733 53.4539 35.308 53.4539 33.684C53.4539 32.0227 53.8272 30.5573 54.5739 29.288C55.3206 28 56.3379 26.9827 57.6259 26.236C58.9326 25.4893 60.4072 25.116 62.0499 25.116C63.2259 25.116 64.2526 25.2373 65.1299 25.48C66.0259 25.704 66.8286 26.0587 67.5379 26.544L66.3339 29.932C65.8299 29.5027 65.2419 29.1667 64.5699 28.924C63.8979 28.6813 63.1512 28.56 62.3299 28.56C61.3592 28.56 60.4912 28.7653 59.7259 29.176C58.9606 29.5867 58.3539 30.1747 57.9059 30.94C57.4766 31.7053 57.2619 32.62 57.2619 33.684C57.2619 34.6733 57.4859 35.56 57.9339 36.344C58.3819 37.1093 59.0166 37.716 59.8379 38.164C60.6592 38.5933 61.6112 38.808 62.6939 38.808C63.6646 38.808 64.5606 38.6867 65.3819 38.444C66.2219 38.2013 66.9032 37.8747 67.4259 37.464L67.5659 41.076ZM76.6285 29.568L76.4885 33.012C76.3765 32.956 76.1805 32.9 75.9005 32.844C75.6392 32.788 75.3872 32.76 75.1445 32.76C74.6405 32.76 74.1458 32.8533 73.6605 33.04C73.1938 33.208 72.7645 33.4413 72.3725 33.74V42H68.7885V29.764L72.3725 29.596V31.052C72.9138 30.492 73.4645 30.0813 74.0245 29.82C74.6032 29.5587 75.2005 29.428 75.8165 29.428C75.9472 29.428 76.0872 29.4373 76.2365 29.456C76.4045 29.4747 76.5352 29.512 76.6285 29.568ZM89.9274 35.84C89.9274 37.072 89.6381 38.1733 89.0594 39.144C88.4994 40.1147 87.7154 40.88 86.7074 41.44C85.6994 41.9813 84.5514 42.252 83.2634 42.252C81.9754 42.252 80.8274 41.9813 79.8194 41.44C78.8114 40.88 78.0181 40.1147 77.4394 39.144C76.8794 38.1733 76.5994 37.072 76.5994 35.84C76.5994 34.5893 76.8794 33.488 77.4394 32.536C78.0181 31.5653 78.8114 30.8093 79.8194 30.268C80.8274 29.708 81.9754 29.428 83.2634 29.428C84.5514 29.428 85.6994 29.708 86.7074 30.268C87.7154 30.8093 88.4994 31.5653 89.0594 32.536C89.6381 33.488 89.9274 34.5893 89.9274 35.84ZM86.2314 35.84C86.2314 35.1867 86.1007 34.6173 85.8394 34.132C85.5781 33.628 85.2234 33.2453 84.7754 32.984C84.3274 32.704 83.8234 32.564 83.2634 32.564C82.7034 32.564 82.1994 32.704 81.7514 32.984C81.3034 33.2453 80.9487 33.628 80.6874 34.132C80.4261 34.6173 80.2954 35.1867 80.2954 35.84C80.2954 36.4933 80.4261 37.072 80.6874 37.576C80.9487 38.0613 81.3034 38.444 81.7514 38.724C82.2181 38.9853 82.7221 39.116 83.2634 39.116C83.8421 39.116 84.3554 38.9853 84.8034 38.724C85.2514 38.444 85.5967 38.0613 85.8394 37.576C86.1007 37.072 86.2314 36.4933 86.2314 35.84ZM110.022 29.68L106.382 42H102.574L101.118 37.66C100.857 36.764 100.642 36.0453 100.474 35.504C100.306 34.944 100.166 34.4307 100.054 33.964H99.9142C99.8209 34.4307 99.6809 34.944 99.4942 35.504C99.3262 36.0453 99.1116 36.764 98.8502 37.66L97.3942 42H93.5862L89.9462 29.764L93.5582 29.596L95.2102 35.476C95.3036 35.868 95.3969 36.3347 95.4902 36.876C95.6022 37.3987 95.6862 37.884 95.7422 38.332H95.8822C95.9382 37.884 96.0316 37.3987 96.1622 36.876C96.2929 36.3347 96.4142 35.868 96.5262 35.476L98.1502 30.604H101.958L103.582 35.476C103.694 35.868 103.816 36.3347 103.946 36.876C104.077 37.3987 104.17 37.884 104.226 38.332H104.366C104.422 37.884 104.497 37.3987 104.59 36.876C104.702 36.3347 104.805 35.868 104.898 35.476L106.494 29.68H110.022ZM123.329 35.84C123.329 37.072 123.04 38.1733 122.461 39.144C121.901 40.1147 121.117 40.88 120.109 41.44C119.101 41.9813 117.953 42.252 116.665 42.252C115.377 42.252 114.229 41.9813 113.221 41.44C112.213 40.88 111.42 40.1147 110.841 39.144C110.281 38.1733 110.001 37.072 110.001 35.84C110.001 34.5893 110.281 33.488 110.841 32.536C111.42 31.5653 112.213 30.8093 113.221 30.268C114.229 29.708 115.377 29.428 116.665 29.428C117.953 29.428 119.101 29.708 120.109 30.268C121.117 30.8093 121.901 31.5653 122.461 32.536C123.04 33.488 123.329 34.5893 123.329 35.84ZM119.633 35.84C119.633 35.1867 119.503 34.6173 119.241 34.132C118.98 33.628 118.625 33.2453 118.177 32.984C117.729 32.704 117.225 32.564 116.665 32.564C116.105 32.564 115.601 32.704 115.153 32.984C114.705 33.2453 114.351 33.628 114.089 34.132C113.828 34.6173 113.697 35.1867 113.697 35.84C113.697 36.4933 113.828 37.072 114.089 37.576C114.351 38.0613 114.705 38.444 115.153 38.724C115.62 38.9853 116.124 39.116 116.665 39.116C117.244 39.116 117.757 38.9853 118.205 38.724C118.653 38.444 118.999 38.0613 119.241 37.576C119.503 37.072 119.633 36.4933 119.633 35.84ZM135.918 29.596V42H132.334V40.964C131.755 41.412 131.167 41.7387 130.57 41.944C129.972 42.1493 129.328 42.252 128.638 42.252C127.368 42.252 126.342 41.8973 125.558 41.188C124.774 40.46 124.382 39.3307 124.382 37.8V29.764L127.966 29.596V37.044C127.966 37.772 128.143 38.2947 128.498 38.612C128.852 38.9293 129.338 39.088 129.954 39.088C130.364 39.088 130.775 39.0227 131.186 38.892C131.596 38.7427 131.979 38.556 132.334 38.332V29.764L135.918 29.596ZM146.245 30.044L145.713 32.956C145.321 32.7693 144.836 32.62 144.257 32.508C143.697 32.3773 143.128 32.312 142.549 32.312C142.026 32.312 141.634 32.396 141.373 32.564C141.13 32.732 141.009 32.956 141.009 33.236C141.009 33.46 141.149 33.656 141.429 33.824C141.709 33.9733 142.064 34.1133 142.493 34.244C142.941 34.3747 143.408 34.5333 143.893 34.72C144.397 34.9067 144.864 35.14 145.293 35.42C145.741 35.7 146.096 36.0733 146.357 36.54C146.637 36.988 146.777 37.5573 146.777 38.248C146.777 38.9573 146.6 39.62 146.245 40.236C145.909 40.8333 145.349 41.3187 144.565 41.692C143.8 42.0653 142.801 42.252 141.569 42.252C140.729 42.252 139.908 42.1587 139.105 41.972C138.321 41.7853 137.686 41.5427 137.201 41.244L137.425 38.22C137.892 38.5187 138.498 38.7893 139.245 39.032C140.01 39.256 140.766 39.368 141.513 39.368C142.577 39.368 143.109 39.0507 143.109 38.416C143.109 38.1733 142.969 37.9773 142.689 37.828C142.409 37.6787 142.054 37.5387 141.625 37.408C141.196 37.2587 140.729 37.0907 140.225 36.904C139.721 36.7173 139.254 36.484 138.825 36.204C138.396 35.9053 138.041 35.532 137.761 35.084C137.481 34.636 137.341 34.0667 137.341 33.376C137.341 32.6293 137.546 31.9667 137.957 31.388C138.386 30.7907 138.993 30.3147 139.777 29.96C140.561 29.6053 141.494 29.428 142.577 29.428C143.305 29.428 143.996 29.484 144.649 29.596C145.302 29.6893 145.834 29.8387 146.245 30.044Z" fill="#FFA0A3"/>
<path d="M48.4377 78H43.5601L41.8427 73.0194H34.6637L32.9119 78H28.2748L35.6942 57.5966H41.0183L48.4377 78ZM40.6748 69.4127L39.0261 64.7756C38.8658 64.3176 38.7284 63.894 38.6139 63.5047C38.5223 63.0925 38.4307 62.6803 38.3391 62.2681H38.1673C38.0757 62.6803 37.9727 63.0925 37.8582 63.5047C37.7666 63.894 37.6407 64.3176 37.4804 64.7756L35.7972 69.4127H40.6748ZM79.9954 62.8864L75.53 78H70.8586L69.0724 72.6759C68.7518 71.5767 68.4885 70.6951 68.2824 70.031C68.0763 69.344 67.9045 68.7143 67.7671 68.1418H67.5954C67.4809 68.7143 67.3092 69.344 67.0802 70.031C66.8741 70.6951 66.6107 71.5767 66.2901 72.6759L64.504 78H59.8325L55.3671 62.9894L59.7982 62.7833L61.8248 69.9967C61.9392 70.4775 62.0537 71.05 62.1682 71.7141C62.3056 72.3553 62.4087 72.9507 62.4774 73.5003H62.6491C62.7178 72.9507 62.8323 72.3553 62.9926 71.7141C63.1529 71.05 63.3018 70.4775 63.4392 69.9967L65.4314 64.0199H70.1029L72.0951 69.9967C72.2325 70.4775 72.3814 71.05 72.5417 71.7141C72.702 72.3553 72.8165 72.9507 72.8852 73.5003H73.0569C73.1256 72.9507 73.2172 72.3553 73.3317 71.7141C73.4691 71.05 73.595 70.4775 73.7095 69.9967L75.6674 62.8864H79.9954ZM91.3355 62.749L91.1637 66.9739C91.0263 66.9052 90.7859 66.8365 90.4424 66.7678C90.1218 66.6991 89.8127 66.6648 89.515 66.6648C88.8967 66.6648 88.2899 66.7793 87.6945 67.0083C87.122 67.2144 86.5953 67.5006 86.1144 67.867V78H81.7177V62.9894L86.1144 62.7833V64.5695C86.7785 63.8825 87.454 63.3787 88.141 63.0581C88.8509 62.7375 89.5837 62.5772 90.3393 62.5772C90.4996 62.5772 90.6714 62.5887 90.8546 62.6116C91.0607 62.6345 91.221 62.6803 91.3355 62.749ZM105.998 78H101.842V76.8321C101.292 77.2672 100.628 77.6222 99.8495 77.897C99.0709 78.1717 98.2122 78.3091 97.2733 78.3091C95.6017 78.3091 94.3193 77.9084 93.4262 77.1069C92.556 76.3054 92.1209 75.1948 92.1209 73.7751C92.1209 72.2408 92.6591 71.0844 93.7353 70.3058C94.8116 69.5043 96.2657 69.1036 98.0977 69.1036C98.7618 69.1036 99.4259 69.1608 100.09 69.2753C100.754 69.3898 101.292 69.5387 101.704 69.7219V68.8975C101.704 68.0044 101.418 67.3747 100.846 67.0083C100.296 66.619 99.4259 66.4243 98.2351 66.4243C97.3878 66.4243 96.5176 66.5274 95.6245 66.7335C94.7544 66.9396 94.0559 67.2029 93.5293 67.5235L93.3575 63.6764C94.0674 63.3329 94.9032 63.0696 95.865 62.8864C96.8497 62.6803 97.8572 62.5772 98.8877 62.5772C101.178 62.5772 102.929 63.0696 104.143 64.0543C105.38 65.016 105.998 66.5388 105.998 68.6227V78ZM101.704 74.4964V72.3324C101.384 72.1721 100.983 72.0462 100.502 71.9546C100.044 71.863 99.5976 71.8172 99.1625 71.8172C98.2923 71.8172 97.6282 71.9775 97.1703 72.298C96.7123 72.5957 96.4833 73.0652 96.4833 73.7064C96.4833 74.3017 96.6779 74.7368 97.0672 75.0116C97.4565 75.2635 98.029 75.3895 98.7847 75.3895C99.3114 75.3895 99.8495 75.3093 100.399 75.149C100.949 74.9658 101.384 74.7483 101.704 74.4964ZM123.986 70.2714C123.986 71.8057 123.654 73.1797 122.99 74.3933C122.349 75.607 121.456 76.5688 120.311 77.2787C119.188 77.9657 117.883 78.3091 116.395 78.3091C115.112 78.3091 114.07 78.103 113.269 77.6909V84.3546H108.872V62.9894L113.269 62.7833V63.8825C113.796 63.4474 114.38 63.1268 115.021 62.9207C115.662 62.6917 116.395 62.5772 117.219 62.5772C118.479 62.5772 119.612 62.8864 120.62 63.5047C121.65 64.123 122.463 65.0046 123.058 66.1496C123.677 67.2945 123.986 68.6685 123.986 70.2714ZM119.452 70.4088C119.452 69.5845 119.314 68.8746 119.04 68.2792C118.765 67.6609 118.353 67.1915 117.803 66.8709C117.276 66.5274 116.612 66.3556 115.811 66.3556C114.826 66.3556 113.979 66.619 113.269 67.1457V74.1185C113.567 74.233 113.91 74.3361 114.299 74.4277C114.712 74.4964 115.135 74.5307 115.57 74.5307C116.372 74.5307 117.059 74.3704 117.631 74.0499C118.204 73.7064 118.65 73.2255 118.971 72.6072C119.292 71.966 119.452 71.2332 119.452 70.4088ZM141.085 70.2714C141.085 71.8057 140.753 73.1797 140.089 74.3933C139.448 75.607 138.555 76.5688 137.41 77.2787C136.288 77.9657 134.983 78.3091 133.494 78.3091C132.212 78.3091 131.17 78.103 130.368 77.6909V84.3546H125.972V62.9894L130.368 62.7833V63.8825C130.895 63.4474 131.479 63.1268 132.12 62.9207C132.761 62.6917 133.494 62.5772 134.319 62.5772C135.578 62.5772 136.712 62.8864 137.719 63.5047C138.75 64.123 139.563 65.0046 140.158 66.1496C140.776 67.2945 141.085 68.6685 141.085 70.2714ZM136.551 70.4088C136.551 69.5845 136.414 68.8746 136.139 68.2792C135.864 67.6609 135.452 67.1915 134.902 66.8709C134.376 66.5274 133.712 66.3556 132.91 66.3556C131.926 66.3556 131.078 66.619 130.368 67.1457V74.1185C130.666 74.233 131.01 74.3361 131.399 74.4277C131.811 74.4964 132.235 74.5307 132.67 74.5307C133.471 74.5307 134.158 74.3704 134.731 74.0499C135.303 73.7064 135.75 73.2255 136.07 72.6072C136.391 71.966 136.551 71.2332 136.551 70.4088ZM156.467 71.508H146.781C146.918 72.1263 147.193 72.6644 147.605 73.1224C148.04 73.5575 148.59 73.8896 149.254 74.1185C149.941 74.3475 150.742 74.462 151.658 74.462C152.437 74.462 153.273 74.359 154.166 74.1529C155.059 73.9239 155.792 73.6377 156.364 73.2942L156.536 77.0382C155.941 77.4504 155.139 77.771 154.132 78C153.147 78.2061 152.219 78.3091 151.349 78.3091C149.403 78.3091 147.731 77.9886 146.334 77.3474C144.96 76.6833 143.918 75.7559 143.209 74.5651C142.522 73.3743 142.178 71.9775 142.178 70.3745C142.178 68.7944 142.499 67.4319 143.14 66.287C143.804 65.1191 144.708 64.2146 145.853 63.5734C147.021 62.9093 148.327 62.5772 149.769 62.5772C151.097 62.5772 152.277 62.8406 153.307 63.3673C154.361 63.894 155.173 64.6611 155.746 65.6687C156.341 66.6533 156.639 67.8441 156.639 69.241C156.639 69.5387 156.616 69.9051 156.57 70.3401C156.547 70.7523 156.513 71.1416 156.467 71.508ZM149.804 65.7374C148.91 65.7374 148.178 66.0351 147.605 66.6304C147.056 67.2258 146.724 68.0159 146.609 69.0005H152.551C152.551 68.9547 152.551 68.886 152.551 68.7944C152.551 68.6799 152.551 68.5998 152.551 68.554C152.551 67.7067 152.3 67.0312 151.796 66.5274C151.315 66.0007 150.651 65.7374 149.804 65.7374ZM168.48 62.749L168.308 66.9739C168.171 66.9052 167.93 66.8365 167.587 66.7678C167.266 66.6991 166.957 66.6648 166.66 66.6648C166.041 66.6648 165.434 66.7793 164.839 67.0083C164.267 67.2144 163.74 67.5006 163.259 67.867V78H158.862V62.9894L163.259 62.7833V64.5695C163.923 63.8825 164.599 63.3787 165.286 63.0581C165.995 62.7375 166.728 62.5772 167.484 62.5772C167.644 62.5772 167.816 62.5887 167.999 62.6116C168.205 62.6345 168.366 62.6803 168.48 62.749ZM186 56.4631L185.829 60.2415C185.668 60.1728 185.451 60.127 185.176 60.1041C184.924 60.0812 184.684 60.0698 184.455 60.0698C183.63 60.0698 183 60.253 182.565 60.6193C182.13 60.9857 181.913 61.5926 181.913 62.4399V62.8864H185.657L185.348 66.6648H181.913V78H177.516V66.6648H175.455V62.8864H177.516V62.3712C177.516 60.356 178.1 58.8332 179.268 57.8027C180.436 56.7493 182.004 56.2227 183.974 56.2227C184.294 56.2227 184.649 56.2456 185.039 56.2914C185.428 56.3372 185.748 56.3944 186 56.4631ZM202.774 70.4432C202.774 71.9546 202.419 73.3056 201.709 74.4964C201.022 75.6872 200.061 76.626 198.824 77.313C197.587 77.9771 196.179 78.3091 194.599 78.3091C193.019 78.3091 191.611 77.9771 190.374 77.313C189.138 76.626 188.164 75.6872 187.454 74.4964C186.768 73.3056 186.424 71.9546 186.424 70.4432C186.424 68.9089 186.768 67.5579 187.454 66.39C188.164 65.1992 189.138 64.2718 190.374 63.6077C191.611 62.9207 193.019 62.5772 194.599 62.5772C196.179 62.5772 197.587 62.9207 198.824 63.6077C200.061 64.2718 201.022 65.1992 201.709 66.39C202.419 67.5579 202.774 68.9089 202.774 70.4432ZM198.24 70.4432C198.24 69.6417 198.08 68.9433 197.759 68.3479C197.439 67.7296 197.004 67.2602 196.454 66.9396C195.904 66.5961 195.286 66.4243 194.599 66.4243C193.912 66.4243 193.294 66.5961 192.744 66.9396C192.195 67.2602 191.76 67.7296 191.439 68.3479C191.118 68.9433 190.958 69.6417 190.958 70.4432C190.958 71.2447 191.118 71.9546 191.439 72.5728C191.76 73.1682 192.195 73.6377 192.744 73.9812C193.317 74.3017 193.935 74.462 194.599 74.462C195.309 74.462 195.939 74.3017 196.488 73.9812C197.038 73.6377 197.462 73.1682 197.759 72.5728C198.08 71.9546 198.24 71.2447 198.24 70.4432ZM214.37 62.749L214.198 66.9739C214.061 66.9052 213.82 66.8365 213.477 66.7678C213.156 66.6991 212.847 66.6648 212.549 66.6648C211.931 66.6648 211.324 66.7793 210.729 67.0083C210.156 67.2144 209.63 67.5006 209.149 67.867V78H204.752V62.9894L209.149 62.7833V64.5695C209.813 63.8825 210.488 63.3787 211.175 63.0581C211.885 62.7375 212.618 62.5772 213.374 62.5772C213.534 62.5772 213.706 62.5887 213.889 62.6116C214.095 62.6345 214.255 62.6803 214.37 62.749ZM232.062 62.8864L231.752 66.6648H227.734V72.4011C227.734 73.1568 227.917 73.6949 228.283 74.0155C228.65 74.3132 229.188 74.462 229.898 74.462C230.287 74.462 230.653 74.4048 230.997 74.2903C231.363 74.1529 231.672 73.9926 231.924 73.8094L232.096 77.5191C231.295 78.0458 230.207 78.3091 228.833 78.3091C226.932 78.3091 225.547 77.8397 224.677 76.9008C223.806 75.962 223.371 74.6223 223.371 72.882V66.6648H221.31V62.8864H223.371V59.7263L227.734 58.7988V62.8864H232.062ZM248.505 78H244.108V68.9662C244.108 68.0731 243.868 67.4319 243.387 67.0426C242.929 66.6533 242.322 66.4587 241.566 66.4587C241.062 66.4587 240.547 66.5503 240.02 66.7335C239.494 66.8938 238.99 67.1228 238.509 67.4205V78H234.112V56.4288L238.509 56.2227V64.1917C239.242 63.6421 240.009 63.2413 240.81 62.9894C241.612 62.7146 242.436 62.5772 243.284 62.5772C244.864 62.5772 246.123 63.0238 247.062 63.9169C248.024 64.787 248.505 66.161 248.505 68.0388V78ZM264.809 71.508H255.123C255.26 72.1263 255.535 72.6644 255.947 73.1224C256.382 73.5575 256.932 73.8896 257.596 74.1185C258.283 74.3475 259.084 74.462 260 74.462C260.779 74.462 261.615 74.359 262.508 74.1529C263.401 73.9239 264.134 73.6377 264.706 73.2942L264.878 77.0382C264.283 77.4504 263.481 77.771 262.473 78C261.489 78.2061 260.561 78.3091 259.691 78.3091C257.745 78.3091 256.073 77.9886 254.676 77.3474C253.302 76.6833 252.26 75.7559 251.55 74.5651C250.863 73.3743 250.52 71.9775 250.52 70.3745C250.52 68.7944 250.841 67.4319 251.482 66.287C252.146 65.1191 253.05 64.2146 254.195 63.5734C255.363 62.9093 256.668 62.5772 258.111 62.5772C259.439 62.5772 260.619 62.8406 261.649 63.3673C262.702 63.894 263.515 64.6611 264.088 65.6687C264.683 66.6533 264.981 67.8441 264.981 69.241C264.981 69.5387 264.958 69.9051 264.912 70.3401C264.889 70.7523 264.855 71.1416 264.809 71.508ZM258.145 65.7374C257.252 65.7374 256.52 66.0351 255.947 66.6304C255.398 67.2258 255.066 68.0159 254.951 69.0005H260.893C260.893 68.9547 260.893 68.886 260.893 68.7944C260.893 68.6799 260.893 68.5998 260.893 68.554C260.893 67.7067 260.642 67.0312 260.138 66.5274C259.657 66.0007 258.993 65.7374 258.145 65.7374ZM53.0749 107H48.6782V97.9662C48.6782 97.8517 48.6667 97.7486 48.6438 97.657C48.6209 97.5654 48.598 97.4738 48.5751 97.3822C48.5064 96.6953 48.2774 96.2029 47.8881 95.9052C47.4988 95.6075 46.9951 95.4587 46.3768 95.4587C46.3539 95.4587 46.3195 95.4701 46.2737 95.493C46.2279 95.493 46.1936 95.493 46.1707 95.493C45.7356 95.5159 45.2776 95.6075 44.7967 95.7678C44.3387 95.9281 43.8922 96.1457 43.4571 96.4205C43.48 96.6266 43.4915 96.8327 43.4915 97.0388C43.5144 97.2449 43.5258 97.4624 43.5258 97.6914V107H39.1635V97.9662C39.1635 97.8517 39.152 97.7486 39.1291 97.657C39.1062 97.5654 39.0833 97.4738 39.0604 97.3822C38.9917 96.6953 38.7627 96.2029 38.3734 95.9052C37.9841 95.6075 37.4804 95.4587 36.8621 95.4587C36.427 95.4587 35.9461 95.5503 35.4194 95.7335C34.9156 95.8938 34.4462 96.1228 34.0111 96.4205V107H29.6144V91.9894L34.0111 91.7833V93.1917C34.5149 92.8024 35.0187 92.4932 35.5225 92.2642C36.0491 92.0123 36.5644 91.852 37.0682 91.7833C37.6636 91.6459 38.2933 91.6116 38.9574 91.6803C39.7817 91.7261 40.526 91.9207 41.1901 92.2642C41.8541 92.6077 42.3808 93.123 42.7701 93.8099C43.5716 93.0314 44.396 92.4703 45.2433 92.1268C46.1134 91.7604 46.9951 91.5772 47.8881 91.5772C49.4224 91.5772 50.6704 92.0238 51.6322 92.9169C52.594 93.787 53.0749 95.161 53.0749 97.0388V107ZM71.4291 99.4432C71.4291 100.955 71.0741 102.306 70.3643 103.496C69.6773 104.687 68.7155 105.626 67.4789 106.313C66.2424 106.977 64.8341 107.309 63.254 107.309C61.6739 107.309 60.2656 106.977 59.0291 106.313C57.7925 105.626 56.8193 104.687 56.1094 103.496C55.4224 102.306 55.0789 100.955 55.0789 99.4432C55.0789 97.9089 55.4224 96.5579 56.1094 95.39C56.8193 94.1992 57.7925 93.2718 59.0291 92.6077C60.2656 91.9207 61.6739 91.5772 63.254 91.5772C64.8341 91.5772 66.2424 91.9207 67.4789 92.6077C68.7155 93.2718 69.6773 94.1992 70.3643 95.39C71.0741 96.5579 71.4291 97.9089 71.4291 99.4432ZM66.895 99.4432C66.895 98.6417 66.7347 97.9433 66.4141 97.3479C66.0935 96.7296 65.6584 96.2602 65.1089 95.9396C64.5593 95.5961 63.941 95.4243 63.254 95.4243C62.567 95.4243 61.9487 95.5961 61.3991 95.9396C60.8496 96.2602 60.4145 96.7296 60.0939 97.3479C59.7733 97.9433 59.613 98.6417 59.613 99.4432C59.613 100.245 59.7733 100.955 60.0939 101.573C60.4145 102.168 60.8496 102.638 61.3991 102.981C61.9716 103.302 62.5899 103.462 63.254 103.462C63.9639 103.462 64.5936 103.302 65.1432 102.981C65.6928 102.638 66.1164 102.168 66.4141 101.573C66.7347 100.955 66.895 100.245 66.895 99.4432ZM88.5205 99.2028C88.5205 100.806 88.177 102.225 87.49 103.462C86.803 104.676 85.8183 105.626 84.536 106.313C83.2536 106.977 81.7193 107.309 79.9332 107.309C78.6966 107.309 77.5173 107.183 76.3952 106.931C75.2731 106.657 74.277 106.313 73.4068 105.901V85.4288L77.8035 85.2227V92.8138C78.4218 92.3787 79.0401 92.0696 79.6584 91.8864C80.2996 91.6803 80.998 91.5772 81.7537 91.5772C83.036 91.5772 84.181 91.8864 85.1886 92.5047C86.2191 93.123 87.032 94.0046 87.6274 95.1496C88.2228 96.2716 88.5205 97.6227 88.5205 99.2028ZM83.9864 99.4088C83.9864 98.5845 83.849 97.8746 83.5742 97.2792C83.2994 96.6609 82.8872 96.1915 82.3376 95.8709C81.8109 95.5274 81.1468 95.3556 80.3454 95.3556C79.3607 95.3556 78.5134 95.619 77.8035 96.1457V103.119C78.1012 103.233 78.4447 103.336 78.834 103.428C79.2462 103.496 79.6698 103.531 80.1049 103.531C80.9064 103.531 81.5934 103.37 82.1659 103.05C82.7384 102.706 83.1849 102.225 83.5055 101.607C83.8261 100.966 83.9864 100.233 83.9864 99.4088ZM92.7733 84.9479C93.4603 84.9479 94.0213 85.1769 94.4564 85.6349C94.8915 86.0699 95.109 86.6195 95.109 87.2836C95.109 87.9706 94.8915 88.5431 94.4564 89.0011C94.0213 89.4362 93.4603 89.6537 92.7733 89.6537C92.0634 89.6537 91.468 89.4362 90.9871 89.0011C90.5292 88.5431 90.3002 87.9706 90.3002 87.2836C90.3002 86.6195 90.5292 86.0699 90.9871 85.6349C91.468 85.1769 92.0634 84.9479 92.7733 84.9479ZM94.9029 91.7833V107H90.5063V91.9894L94.9029 91.7833ZM102.207 85.2227V107H97.8108V85.4288L102.207 85.2227ZM118.512 100.508H108.825C108.962 101.126 109.237 101.664 109.649 102.122C110.085 102.558 110.634 102.89 111.298 103.119C111.985 103.348 112.787 103.462 113.703 103.462C114.481 103.462 115.317 103.359 116.21 103.153C117.103 102.924 117.836 102.638 118.408 102.294L118.58 106.038C117.985 106.45 117.183 106.771 116.176 107C115.191 107.206 114.264 107.309 113.394 107.309C111.447 107.309 109.775 106.989 108.379 106.347C107.005 105.683 105.963 104.756 105.253 103.565C104.566 102.374 104.222 100.977 104.222 99.3745C104.222 97.7944 104.543 96.4319 105.184 95.287C105.848 94.1191 106.753 93.2146 107.898 92.5734C109.066 91.9093 110.371 91.5772 111.813 91.5772C113.142 91.5772 114.321 91.8406 115.351 92.3673C116.405 92.894 117.218 93.6611 117.79 94.6687C118.386 95.6533 118.683 96.8441 118.683 98.241C118.683 98.5387 118.66 98.9051 118.615 99.3401C118.592 99.7523 118.557 100.142 118.512 100.508ZM111.848 94.7374C110.955 94.7374 110.222 95.0351 109.649 95.6304C109.1 96.2258 108.768 97.0159 108.653 98.0005H114.596C114.596 97.9547 114.596 97.886 114.596 97.7944C114.596 97.6799 114.596 97.5998 114.596 97.554C114.596 96.7067 114.344 96.0312 113.84 95.5274C113.359 95.0007 112.695 94.7374 111.848 94.7374ZM146.263 107H141.385L139.668 102.019H132.489L130.737 107H126.1L133.519 86.5966H138.844L146.263 107ZM138.5 98.4127L136.851 93.7756C136.691 93.3176 136.554 92.894 136.439 92.5047C136.347 92.0925 136.256 91.6803 136.164 91.2681H135.993C135.901 91.6803 135.798 92.0925 135.683 92.5047C135.592 92.894 135.466 93.3176 135.306 93.7756L133.622 98.4127H138.5ZM163.662 93.6038C163.662 95.1152 163.319 96.3976 162.632 97.4509C161.968 98.5043 160.994 99.2943 159.712 99.821C158.43 100.348 156.884 100.611 155.075 100.611H152.67V107H148.102V86.5966H155.109C156.918 86.5966 158.452 86.8714 159.712 87.421C160.994 87.9706 161.968 88.7606 162.632 89.7911C163.319 90.8216 163.662 92.0925 163.662 93.6038ZM159.094 93.6038C159.094 92.8482 158.922 92.2299 158.578 91.749C158.258 91.2681 157.788 90.9132 157.17 90.6842C156.575 90.4552 155.853 90.3407 155.006 90.3407H152.67V96.867H155.006C155.853 96.867 156.575 96.7525 157.17 96.5235C157.788 96.2945 158.258 95.9396 158.578 95.4587C158.922 94.9778 159.094 94.3595 159.094 93.6038ZM170.709 86.5966V107H166.141V86.5966H170.709ZM195.898 99.4432C195.898 100.955 195.543 102.306 194.833 103.496C194.146 104.687 193.184 105.626 191.948 106.313C190.711 106.977 189.303 107.309 187.723 107.309C186.143 107.309 184.734 106.977 183.498 106.313C182.261 105.626 181.288 104.687 180.578 103.496C179.891 102.306 179.547 100.955 179.547 99.4432C179.547 97.9089 179.891 96.5579 180.578 95.39C181.288 94.1992 182.261 93.2718 183.498 92.6077C184.734 91.9207 186.143 91.5772 187.723 91.5772C189.303 91.5772 190.711 91.9207 191.948 92.6077C193.184 93.2718 194.146 94.1992 194.833 95.39C195.543 96.5579 195.898 97.9089 195.898 99.4432ZM191.364 99.4432C191.364 98.6417 191.203 97.9433 190.883 97.3479C190.562 96.7296 190.127 96.2602 189.577 95.9396C189.028 95.5961 188.41 95.4243 187.723 95.4243C187.036 95.4243 186.417 95.5961 185.868 95.9396C185.318 96.2602 184.883 96.7296 184.562 97.3479C184.242 97.9433 184.082 98.6417 184.082 99.4432C184.082 100.245 184.242 100.955 184.562 101.573C184.883 102.168 185.318 102.638 185.868 102.981C186.44 103.302 187.058 103.462 187.723 103.462C188.432 103.462 189.062 103.302 189.612 102.981C190.161 102.638 190.585 102.168 190.883 101.573C191.203 100.955 191.364 100.245 191.364 99.4432ZM207.184 85.4631L207.012 89.2415C206.852 89.1728 206.634 89.127 206.36 89.1041C206.108 89.0812 205.867 89.0698 205.638 89.0698C204.814 89.0698 204.184 89.253 203.749 89.6193C203.314 89.9857 203.096 90.5926 203.096 91.4399V91.8864H206.841L206.531 95.6648H203.096V107H198.7V95.6648H196.639V91.8864H198.7V91.3712C198.7 89.356 199.284 87.8332 200.452 86.8027C201.619 85.7493 203.188 85.2227 205.157 85.2227C205.478 85.2227 205.833 85.2456 206.222 85.2914C206.612 85.3372 206.932 85.3944 207.184 85.4631Z" fill="white"/>
<path d="M215.477 107V86.5966H220.046V102.878H228.564L228.221 107H215.477ZM243.718 100.508H234.032C234.169 101.126 234.444 101.664 234.856 102.122C235.291 102.558 235.841 102.89 236.505 103.119C237.192 103.348 237.993 103.462 238.909 103.462C239.688 103.462 240.524 103.359 241.417 103.153C242.31 102.924 243.043 102.638 243.615 102.294L243.787 106.038C243.191 106.45 242.39 106.771 241.382 107C240.398 107.206 239.47 107.309 238.6 107.309C236.654 107.309 234.982 106.989 233.585 106.347C232.211 105.683 231.169 104.756 230.459 103.565C229.772 102.374 229.429 100.977 229.429 99.3745C229.429 97.7944 229.749 96.4319 230.391 95.287C231.055 94.1191 231.959 93.2146 233.104 92.5734C234.272 91.9093 235.577 91.5772 237.02 91.5772C238.348 91.5772 239.527 91.8406 240.558 92.3673C241.611 92.894 242.424 93.6611 242.997 94.6687C243.592 95.6533 243.89 96.8441 243.89 98.241C243.89 98.5387 243.867 98.9051 243.821 99.3401C243.798 99.7523 243.764 100.142 243.718 100.508ZM237.054 94.7374C236.161 94.7374 235.428 95.0351 234.856 95.6304C234.306 96.2258 233.974 97.0159 233.86 98.0005H239.802C239.802 97.9547 239.802 97.886 239.802 97.7944C239.802 97.6799 239.802 97.5998 239.802 97.554C239.802 96.7067 239.55 96.0312 239.047 95.5274C238.566 95.0007 237.902 94.7374 237.054 94.7374ZM256.555 92.3329L255.903 95.9052C255.422 95.6762 254.826 95.493 254.116 95.3556C253.429 95.1954 252.731 95.1152 252.021 95.1152C251.38 95.1152 250.899 95.2183 250.578 95.4243C250.281 95.6304 250.132 95.9052 250.132 96.2487C250.132 96.5235 250.304 96.764 250.647 96.9701C250.991 97.1533 251.426 97.325 251.952 97.4853C252.502 97.6456 253.075 97.8402 253.67 98.0692C254.288 98.2982 254.861 98.5845 255.387 98.928C255.937 99.2714 256.372 99.7294 256.693 100.302C257.036 100.852 257.208 101.55 257.208 102.397C257.208 103.267 256.99 104.08 256.555 104.836C256.143 105.569 255.456 106.164 254.494 106.622C253.555 107.08 252.33 107.309 250.819 107.309C249.788 107.309 248.781 107.195 247.796 106.966C246.834 106.737 246.056 106.439 245.46 106.073L245.735 102.363C246.308 102.729 247.052 103.061 247.968 103.359C248.907 103.634 249.834 103.771 250.75 103.771C252.056 103.771 252.708 103.382 252.708 102.603C252.708 102.306 252.536 102.065 252.193 101.882C251.849 101.699 251.414 101.527 250.888 101.367C250.361 101.184 249.788 100.977 249.17 100.748C248.552 100.519 247.979 100.233 247.453 99.8897C246.926 99.5233 246.491 99.0654 246.147 98.5158C245.804 97.9662 245.632 97.2678 245.632 96.4205C245.632 95.5045 245.884 94.6916 246.388 93.9817C246.915 93.2489 247.659 92.665 248.621 92.2299C249.582 91.7948 250.727 91.5772 252.056 91.5772C252.949 91.5772 253.796 91.6459 254.597 91.7833C255.399 91.8978 256.051 92.081 256.555 92.3329ZM282.411 105.866C281.678 106.347 280.762 106.714 279.663 106.966C278.587 107.195 277.453 107.309 276.262 107.309C273.995 107.309 272.026 106.851 270.354 105.935C268.683 105.019 267.389 103.771 266.473 102.191C265.557 100.588 265.099 98.7906 265.099 96.7983C265.099 94.7603 265.557 92.9627 266.473 91.4055C267.389 89.8254 268.637 88.5774 270.217 87.6614C271.82 86.7455 273.629 86.2875 275.644 86.2875C277.087 86.2875 278.346 86.4363 279.422 86.734C280.522 87.0088 281.506 87.4439 282.376 88.0393L280.899 92.1955C280.281 91.6688 279.56 91.2567 278.735 90.959C277.911 90.6613 276.995 90.5124 275.987 90.5124C274.797 90.5124 273.732 90.7643 272.793 91.2681C271.854 91.7719 271.11 92.4932 270.56 93.4321C270.034 94.371 269.77 95.493 269.77 96.7983C269.77 98.012 270.045 99.0997 270.595 100.061C271.144 101 271.923 101.745 272.93 102.294C273.938 102.821 275.106 103.084 276.434 103.084C277.625 103.084 278.724 102.935 279.732 102.638C280.762 102.34 281.598 101.939 282.239 101.435L282.411 105.866ZM294.215 91.749L294.044 95.9739C293.906 95.9052 293.666 95.8365 293.322 95.7678C293.002 95.6991 292.692 95.6648 292.395 95.6648C291.776 95.6648 291.17 95.7793 290.574 96.0083C290.002 96.2144 289.475 96.5006 288.994 96.867V107H284.598V91.9894L288.994 91.7833V93.5695C289.658 92.8825 290.334 92.3787 291.021 92.0581C291.731 91.7375 292.463 91.5772 293.219 91.5772C293.379 91.5772 293.551 91.5887 293.734 91.6116C293.94 91.6345 294.101 91.6803 294.215 91.749ZM311.217 99.4432C311.217 100.955 310.862 102.306 310.152 103.496C309.465 104.687 308.503 105.626 307.267 106.313C306.03 106.977 304.622 107.309 303.042 107.309C301.462 107.309 300.053 106.977 298.817 106.313C297.58 105.626 296.607 104.687 295.897 103.496C295.21 102.306 294.867 100.955 294.867 99.4432C294.867 97.9089 295.21 96.5579 295.897 95.39C296.607 94.1992 297.58 93.2718 298.817 92.6077C300.053 91.9207 301.462 91.5772 303.042 91.5772C304.622 91.5772 306.03 91.9207 307.267 92.6077C308.503 93.2718 309.465 94.1992 310.152 95.39C310.862 96.5579 311.217 97.9089 311.217 99.4432ZM306.683 99.4432C306.683 98.6417 306.522 97.9433 306.202 97.3479C305.881 96.7296 305.446 96.2602 304.897 95.9396C304.347 95.5961 303.729 95.4243 303.042 95.4243C302.355 95.4243 301.736 95.5961 301.187 95.9396C300.637 96.2602 300.202 96.7296 299.882 97.3479C299.561 97.9433 299.401 98.6417 299.401 99.4432C299.401 100.245 299.561 100.955 299.882 101.573C300.202 102.168 300.637 102.638 301.187 102.981C301.759 103.302 302.378 103.462 303.042 103.462C303.752 103.462 304.381 103.302 304.931 102.981C305.48 102.638 305.904 102.168 306.202 101.573C306.522 100.955 306.683 100.245 306.683 99.4432ZM327.346 91.7833V107H322.95V105.729C322.24 106.279 321.518 106.679 320.786 106.931C320.053 107.183 319.263 107.309 318.416 107.309C316.858 107.309 315.599 106.874 314.637 106.004C313.675 105.111 313.195 103.725 313.195 101.848V91.9894L317.591 91.7833V100.92C317.591 101.813 317.809 102.454 318.244 102.844C318.679 103.233 319.274 103.428 320.03 103.428C320.534 103.428 321.038 103.348 321.541 103.187C322.045 103.004 322.515 102.775 322.95 102.5V91.9894L327.346 91.7833ZM340.703 92.3329L340.05 95.9052C339.569 95.6762 338.974 95.493 338.264 95.3556C337.577 95.1954 336.878 95.1152 336.168 95.1152C335.527 95.1152 335.046 95.2183 334.726 95.4243C334.428 95.6304 334.279 95.9052 334.279 96.2487C334.279 96.5235 334.451 96.764 334.794 96.9701C335.138 97.1533 335.573 97.325 336.1 97.4853C336.649 97.6456 337.222 97.8402 337.817 98.0692C338.435 98.2982 339.008 98.5845 339.535 98.928C340.084 99.2714 340.519 99.7294 340.84 100.302C341.183 100.852 341.355 101.55 341.355 102.397C341.355 103.267 341.138 104.08 340.703 104.836C340.29 105.569 339.603 106.164 338.642 106.622C337.703 107.08 336.478 107.309 334.966 107.309C333.936 107.309 332.928 107.195 331.944 106.966C330.982 106.737 330.203 106.439 329.608 106.073L329.883 102.363C330.455 102.729 331.199 103.061 332.115 103.359C333.054 103.634 333.982 103.771 334.898 103.771C336.203 103.771 336.855 103.382 336.855 102.603C336.855 102.306 336.684 102.065 336.34 101.882C335.997 101.699 335.562 101.527 335.035 101.367C334.508 101.184 333.936 100.977 333.317 100.748C332.699 100.519 332.127 100.233 331.6 99.8897C331.073 99.5233 330.638 99.0654 330.295 98.5158C329.951 97.9662 329.78 97.2678 329.78 96.4205C329.78 95.5045 330.031 94.6916 330.535 93.9817C331.062 93.2489 331.806 92.665 332.768 92.2299C333.73 91.7948 334.875 91.5772 336.203 91.5772C337.096 91.5772 337.943 91.6459 338.745 91.7833C339.546 91.8978 340.199 92.081 340.703 92.3329Z" fill="#FFA0A3"/>
<g style="mix-blend-mode:overlay">
<path fill-rule="evenodd" clip-rule="evenodd" d="M477.798 -3.92365L379 -3.92364V-55L477.798 -55L477.798 -3.92365L529.11 -3.92364V94.7405L477.798 95.3454L477.798 47.5157C451.624 47.9714 430.547 69.211 430.547 95.3454H379C379 40.9038 423.155 -3.46485 477.798 -3.92365Z" fill="#FFA0A3"/>
<path fill-rule="evenodd" clip-rule="evenodd" d="M580.893 94.9329L679.691 94.9293V146.187H580.893V94.9293L529.111 94.7407V-3.92345L580.893 -3.92345V43.6713C607.067 43.2156 628.127 22.211 628.127 -3.92345H679.221C679.221 50.5181 635.536 94.4705 580.893 94.9293V94.9329Z" fill="#FFA0A3" fill-opacity="0.5"/>
<path fill-rule="evenodd" clip-rule="evenodd" d="M778.489 47.0959L679.221 47.0959V-3.92334L778.489 -3.92334V47.0995L830.036 47.0995V146.187H778.489V98.3574C752.315 98.8132 731.238 120.053 731.238 146.187H679.691C679.691 91.7456 723.845 47.5583 778.489 47.0995V47.0959Z" fill="#FFA0A3" fill-opacity="0.7"/>
</g>
</g>
<rect x="0.5" y="0.5" width="829" height="134" rx="13.5" stroke="url(#paint2_linear_377_6689)" style="mix-blend-mode:overlay"/>
<rect x="0.5" y="0.5" width="829" height="134" rx="13.5" stroke="url(#paint3_linear_377_6689)" stroke-opacity="0.1"/>
<rect x="0.5" y="0.5" width="829" height="134" rx="13.5" stroke="white" stroke-opacity="0.1"/>
<defs>
<radialGradient id="paint0_radial_377_6689" cx="0" cy="0" r="1" gradientUnits="userSpaceOnUse" gradientTransform="translate(9.4458e-07 165.586) rotate(17.7974) scale(413.385 308.037)">
<stop offset="0.100613" stop-color="#FFA0A3" stop-opacity="0"/>
<stop offset="0.515" stop-color="#A9191D"/>
<stop offset="1" stop-color="#FF0009" stop-opacity="0.35"/>
</radialGradient>
<radialGradient id="paint1_radial_377_6689" cx="0" cy="0" r="1" gradientUnits="userSpaceOnUse" gradientTransform="translate(1136.06 -141.75) rotate(105.756) scale(434.619 1675.73)">
<stop stop-color="#FFA0A3" stop-opacity="0"/>
<stop offset="0.5" stop-color="#FFA0A3"/>
<stop offset="1" stop-color="#FFA0A3" stop-opacity="0.184314"/>
</radialGradient>
<linearGradient id="paint2_linear_377_6689" x1="415" y1="0" x2="415" y2="135" gradientUnits="userSpaceOnUse">
<stop stop-color="white" stop-opacity="0.6"/>
<stop offset="0.5" stop-color="white" stop-opacity="0"/>
<stop offset="1" stop-color="white"/>
</linearGradient>
<linearGradient id="paint3_linear_377_6689" x1="415" y1="0" x2="415" y2="135" gradientUnits="userSpaceOnUse">
<stop stop-color="white" stop-opacity="0.6"/>
<stop offset="0.5" stop-color="white" stop-opacity="0"/>
<stop offset="1" stop-color="white"/>
</linearGradient>
<clipPath id="clip0_377_6689">
<rect width="830" height="135" rx="14" fill="white"/>
</clipPath>
</defs>
</svg>
